<svg xmlns="http://www.w3.org/2000/svg">
    <symbol id="computer" viewBox="0 0 24 24">
        <title>Monitor</title>
        <path d="M20.841.4188H3.4035A2.9055,2.9055,0,0,0,.4972,3.325V16.4031a2.9055,2.9055,0,0,0,2.9063,2.9063H7.7628v2.9062H4.8566v1.4532H19.3878V22.2156H16.4816V19.3094H20.841a2.9055,2.9055,0,0,0,2.9062-2.9063V3.325A2.9054,2.9054,0,0,0,20.841.4188ZM15.0285,22.2156H9.216V19.3094h5.8125ZM22.2941,14.95H1.95V3.325A1.4546,1.4546,0,0,1,3.4035,1.8719H20.841A1.4546,1.4546,0,0,1,22.2941,3.325Z"/>
    </symbol>

    <symbol id="smile" viewBox="0 0 24 24">
        <title>Alegre</title>
        <polygon points="7.763 6.231 7.763 4.778 6.31 4.778 6.31 6.231 6.31 7.684 7.763 7.684 7.763 6.231"/>
        <rect x="7.7628" y="9.1375" width="1.4531" height="1.4531"/>
        <rect x="9.2159" y="10.5906" width="5.5681" height="1.4531"/>
        <rect x="14.7841" y="9.1375" width="1.4531" height="1.4531"/>
        <polygon points="16.237 4.778 16.237 6.231 16.237 7.684 17.69 7.684 17.69 6.231 17.69 4.778 16.237 4.778"/>
    </symbol>

    <symbol id="happy" viewBox="0 0 24 24">
        <title>Felíz</title>
        <rect x="4.8566" y="6.2313" width="1.4531" height="1.4531"/>
        <rect x="7.7628" y="6.2313" width="1.4531" height="1.4531"/>
        <rect x="6.3097" y="4.7781" width="1.4531" height="1.4531"/>
        <polygon points="7.763 10.591 7.763 12.044 9.216 12.044 9.216 10.591 14.784 10.591 14.784 12.044 16.237 12.044 16.237 10.591 16.237 9.138 7.763 9.138 7.763 10.591"/>
        <rect x="9.216" y="12.0438" width="5.5681" height="1.4531"/>
        <rect x="17.6903" y="6.2313" width="1.4531" height="1.4531"/>
        <rect x="14.784" y="6.2313" width="1.4531" height="1.4531"/>
        <rect x="16.2371" y="4.7781" width="1.4531" height="1.4531"/>
    </symbol>

    <symbol id="surprised" viewBox="0 0 24 24">
        <title>Sorprendida</title>
        <rect x="4.8566" y="6.2312" width="1.4531" height="1.4531"/>
        <rect x="7.7628" y="6.2312" width="1.4531" height="1.4531"/>
        <rect x="6.3097" y="4.7781" width="1.4531" height="1.4531"/>
        <rect x="6.3097" y="7.6844" width="1.4531" height="1.4531"/>
        <rect x="9.2159" y="9.1375" width="5.5681" height="1.4531"/>
        <rect x="17.6903" y="6.2312" width="1.4531" height="1.4531"/>
        <rect x="14.7841" y="6.2312" width="1.4531" height="1.4531"/>
        <rect x="16.2372" y="4.7781" width="1.4531" height="1.4531"/>
        <rect x="16.2372" y="7.6844" width="1.4531" height="1.4531"/>
        <polygon points="14.784 12.044 9.216 12.044 9.216 10.591 7.763 10.591 7.763 12.044 7.763 13.497 16.237 13.497 16.237 12.044 16.237 10.591 14.784 10.591 14.784 12.044"/>
    </symbol>

    <symbol id="sad" viewBox="0 0 24 24">
        <title>Triste</title>
        <rect x="4.8566" y="4.7781" width="1.4531" height="1.4531"/>
        <rect x="7.7629" y="4.7781" width="1.4531" height="1.4531"/>
        <rect x="7.7629" y="12.0437" width="1.4531" height="1.4531"/>
        <rect x="6.3097" y="6.2312" width="1.4531" height="1.4531"/>
        <rect x="9.216" y="10.5906" width="5.5681" height="1.4531"/>
        <rect x="17.6903" y="4.7781" width="1.4531" height="1.4531"/>
        <rect x="14.784" y="4.7781" width="1.4531" height="1.4531"/>
        <rect x="14.784" y="12.0437" width="1.4531" height="1.4531"/>
        <rect x="16.2372" y="6.2312" width="1.4531" height="1.4531"/>
    </symbol>
</svg>