<svg xmlns="http://www.w3.org/2000/svg">
    <symbol id="dragon" viewBox="0 0 640 512">
        <title>Dragón</title>
        <path d="M18.43 255.8L192 224L100.8 292.6C90.67 302.8 97.8 320 112 320h222.7c-9.499-26.5-14.75-54.5-14.75-83.38V194.2L200.3 106.8C176.5 90.88 145 92.75 123.3 111.2l-117.5 116.4C-6.562 238 2.436 258 18.43 255.8zM575.2 289.9l-100.7-50.25c-16.25-8.125-26.5-24.75-26.5-43V160h63.99l28.12 22.62C546.1 188.6 554.2 192 562.7 192h30.1c11.1 0 23.12-6.875 28.5-17.75l14.37-28.62c5.374-10.87 4.25-23.75-2.999-33.5l-74.49-99.37C552.1 4.75 543.5 0 533.5 0H296C288.9 0 285.4 8.625 290.4 13.62L351.1 64L292.4 88.75c-5.874 3-5.874 11.37 0 14.37L351.1 128l-.0011 108.6c0 72 35.99 139.4 95.99 179.4c-195.6 6.75-344.4 41-434.1 60.88c-8.124 1.75-13.87 9-13.87 17.38C.0463 504 8.045 512 17.79 512h499.1c63.24 0 119.6-47.5 122.1-110.8C642.3 354 617.1 310.9 575.2 289.9zM489.1 66.25l45.74 11.38c-2.75 11-12.5 18.88-24.12 18.25C497.7 95.25 484.8 83.38 489.1 66.25z"/>
    </symbol>
    
    <symbol id="cat" viewBox="0 0 576 512">
        <title>Gato</title>
        <path d="M322.6 192C302.4 192 215.8 194 160 278V192c0-53-43-96-96-96C46.38 96 32 110.4 32 128s14.38 32 32 32s32 14.38 32 32v256c0 35.25 28.75 64 64 64h176c8.875 0 16-7.125 16-15.1V480c0-17.62-14.38-32-32-32h-32l128-96v144c0 8.875 7.125 16 16 16h32c8.875 0 16-7.125 16-16V289.9c-10.25 2.625-20.88 4.5-32 4.5C386.2 294.4 334.5 250.4 322.6 192zM480 96h-64l-64-64v134.4c0 53 43 95.1 96 95.1s96-42.1 96-95.1V32L480 96zM408 176c-8.875 0-16-7.125-16-16s7.125-16 16-16s16 7.125 16 16S416.9 176 408 176zM488 176c-8.875 0-16-7.125-16-16s7.125-16 16-16s16 7.125 16 16S496.9 176 488 176z"/>
    </symbol>
    
    <symbol id="kiwi" viewBox="0 0 576 512">
        <title>Kiwi</title>
        <path d="M575.8 218c-3.125-60.62-57.58-105.1-118.2-105.1l-9.372 .0001c-52.75 0-104.2-16.25-147.7-46.25c-41.1-28.1-95.96-41.62-153.2-28.75C129.3 41.15-.125 78.27 0 224c0 70.99 38.63 132.8 96 166.1l.0004 73.92C96 472.9 103.1 480 112 480l15.1 0c8.875 0 15.1-7.125 15.1-15.1l.0008-54.17c15.37 3.1 31.36 6.167 47.98 6.167c5.375 0 10.64-.7494 16.02-1.124l-.0001 49.12c0 8.874 7.125 15.1 15.1 15.1L239.1 480c8.875 0 15.1-7.125 15.1-15.1l.0001-59.46c14.25-5.125 27.85-11.39 40.35-19.51c45.75-29.75 97.37-49.04 151.1-49.04c25.5 0 16.15-.2423 23.15-.7423l74.45 136.4C548.8 476.9 554.2 480 559.1 480c1.25 0 2.666-.125 3.916-.5c7.125-1.75 12.09-8.25 12.09-15.5C575.1 464 576.2 223.8 575.8 218zM463.1 248c-13.25 0-23.1-10.75-23.1-23.1s10.75-23.1 23.1-23.1s23.1 10.75 23.1 23.1S477.2 248 463.1 248zM543.1 401.3l-39.88-73.13c15.12-5.75 28.75-14.49 39.88-25.87V401.3z"/>
    </symbol>
    
    <symbol id="spider" viewBox="0 0 576 512">
        <title>Araña</title>
        <path d="M563.3 401.6c2.608 8.443-2.149 17.4-10.62 19.1l-15.35 4.709c-8.48 2.6-17.47-2.139-20.08-10.59L493.2 338l-79.79-31.8l53.47 62.15c5.08 5.904 6.972 13.89 5.08 21.44l-28.23 110.1c-2.151 8.57-10.87 13.78-19.47 11.64l-15.58-3.873c-8.609-2.141-13.84-10.83-11.69-19.4l25.2-98.02l-38.51-44.77c.1529 2.205 .6627 4.307 .6627 6.549c0 53.02-43.15 96-96.37 96S191.6 405 191.6 352c0-2.242 .5117-4.34 .6627-6.543l-38.51 44.76l25.2 98.02c2.151 8.574-3.084 17.26-11.69 19.4l-15.58 3.873c-8.603 2.141-17.32-3.072-19.47-11.64l-28.23-110.1c-1.894-7.543 0-15.53 5.08-21.44l53.47-62.15l-79.79 31.8l-24.01 77.74c-2.608 8.447-11.6 13.19-20.08 10.59l-15.35-4.709c-8.478-2.6-13.23-11.55-10.63-19.1l27.4-88.69c2.143-6.939 7.323-12.54 14.09-15.24L158.9 256l-104.7-41.73C47.43 211.6 42.26 205.1 40.11 199.1L12.72 110.4c-2.608-8.443 2.149-17.4 10.62-19.1l15.35-4.709c8.48-2.6 17.47 2.139 20.08 10.59l24.01 77.74l79.79 31.8L109.1 143.6C104 137.7 102.1 129.7 104 122.2l28.23-110.1c2.151-8.57 10.87-13.78 19.47-11.64l15.58 3.873C175.9 6.494 181.1 15.18 178.1 23.76L153.8 121.8L207.7 184.4l.1542-24.44C206.1 123.4 228.9 91.77 261.4 80.43c5.141-1.793 10.5 2.215 10.5 7.641V112h32.12V88.09c0-5.443 5.394-9.443 10.55-7.641C345.9 91.39 368.3 121 368.3 155.9c0 1.393-.1786 2.689-.2492 4.064L368.3 184.4l53.91-62.66l-25.2-98.02c-2.151-8.574 3.084-17.26 11.69-19.4l15.58-3.873c8.603-2.141 17.32 3.072 19.47 11.64l28.23 110.1c1.894 7.543 0 15.53-5.08 21.44l-53.47 62.15l79.79-31.8l24.01-77.74c2.608-8.447 11.6-13.19 20.08-10.59l15.35 4.709c8.478 2.6 13.23 11.55 10.63 19.1l-27.4 88.69c-2.143 6.939-7.323 12.54-14.09 15.24L417.1 256l104.7 41.73c6.754 2.691 11.92 8.283 14.07 15.21L563.3 401.6z"/>
    </symbol>
    
    <symbol id="horse" viewBox="0 0 576 512">
        <title>Caballo</title>
        <path d="M575.9 76.61c0-8.125-3.05-15.84-8.55-21.84c-3.875-4-8.595-9.125-13.72-14.5c11.12-6.75 19.47-17.51 22.22-30.63c.9999-5-2.849-9.641-7.974-9.641L447.9 0c-70.62 0-127.9 57.25-127.9 128L159.1 128c-28.87 0-54.38 12.1-72 33.12L87.1 160C39.5 160 .0001 199.5 .0001 248L0 304c0 8.875 7.125 15.1 15.1 15.1L31.1 320c8.874 0 15.1-7.125 15.1-16l.0005-56c0-13.25 6.884-24.4 16.76-31.65c-.125 2.5-.758 5.024-.758 7.649c0 27.62 11.87 52.37 30.5 69.87l-25.65 68.61c-4.586 12.28-5.312 25.68-2.128 38.4l21.73 86.89C92.02 502 104.8 512 119.5 512h32.98c20.81 0 36.08-19.55 31.05-39.74L162.2 386.9l23.78-63.61l133.1 22.34L319.1 480c0 17.67 14.33 32 31.1 32h31.1c17.67 0 31.1-14.33 31.1-32l.0166-161.8C435.7 297.1 447.1 270.5 447.1 240c0-.25-.1025-.3828-.1025-.6328V136.9L463.9 144l18.95 37.72c7.481 14.86 25.08 21.55 40.52 15.34l32.54-13.05c12.13-4.878 20.11-16.67 20.09-29.74L575.9 76.61zM511.9 96c-8.75 0-15.1-7.125-15.1-16S503.1 64 511.9 64c8.874 0 15.1 7.125 15.1 16S520.8 96 511.9 96z"/>
    </symbol>
    
    <symbol id="dog" viewBox="0 0 576 512">
        <title>Perro</title>
        <path d="M297.1 224L448 277.5v218.5C448 504.9 440.9 512 432 512h-64c-8.875 0-16-7.125-16-15.1v-111.1H192v111.1C192 504.9 184.9 512 176 512h-64C103.1 512 96 504.9 96 496v-213.9C58.88 268.9 32 233.6 32 192c0-17.62 14.38-31.1 32-31.1s32 14.37 32 31.1s14.38 31.1 32 31.1H297.1zM544 112v31.1c0 35.37-28.62 63.1-64 63.1l-32 .0005v35.62l-128-45.75V48c0-14.25 17.25-21.37 27.25-11.25l27.38 27.25l53.63-.0008c10.88 0 23.75 7.875 28.62 17.75L464 96l64 .0006C536.9 96 544 103.1 544 112zM432 112c0-8.875-7.125-15.1-16-15.1s-16 7.124-16 15.1s7.125 15.1 16 15.1S432 120.9 432 112z"/>
    </symbol>
    
    <symbol id="frog" viewBox="0 0 576 512">
        <title>Rana</title>
        <path d="M528 416h-32.07l-90.32-96.34l140.6-79.03c18.38-10.25 29.75-29.62 29.75-50.62c0-21.5-11.75-41-30.5-51.25c-40.5-22.25-99.07-41.43-99.07-41.43C439.6 60.19 407.3 32 368 32s-71.77 28.25-78.52 65.5C126.7 113-.4999 250.1 .0001 417C.1251 451.9 29.13 480 64 480h304c8.875 0 16-7.125 16-16c0-26.51-21.49-48-47.1-48H284.3l23.93-32.38c24.25-36.13 10.38-88.25-33.63-106.5C250.8 267.1 223 272.4 202.4 288L169.6 312.5c-7.125 5.375-17.12 4-22.38-3.125c-5.375-7.125-4-17.12 3.125-22.38l34.75-26.12c36.87-27.62 88.37-27.62 125.1 0c10.88 8.125 45.88 39 40.88 93.13L469.6 480h90.38c8.875 0 16-7.125 16-16C576 437.5 554.5 416 528 416zM344 112c0-13.25 10.75-24 24-24s24 10.75 24 24s-10.75 24-24 24S344 125.3 344 112z"/>
    </symbol>
    
    <symbol id="bird" viewBox="0 0 512 512">
        <title>Pájaro</title>
        <path d="M288 167.2V139.1c-28.25-36.38-47.13-79.29-54.13-125.2C231.7 .4054 214.8-5.02 206.1 5.481C184.1 30.36 168.4 59.7 157.2 92.07C191.4 130.3 237.2 156.7 288 167.2zM400 63.97c-44.25 0-79.1 35.82-79.1 80.08l.0014 59.44c-104.4-6.251-193-70.46-233-161.7C81.48 29.25 63.76 28.58 58.01 40.83C41.38 75.96 32.01 115.2 32.01 156.6c0 70.76 34.11 136.9 85.11 185.9c13.12 12.75 26.13 23.27 38.88 32.77L12.12 411.2c-10.75 2.75-15.5 15.09-9.5 24.47c17.38 26.88 60.42 72.54 153.2 76.29c8 .25 15.99-2.633 22.12-7.883l65.23-56.12l76.84 .0561c88.38 0 160-71.49 160-159.9l.0013-160.2l31.1-63.99L400 63.97zM400 160.1c-8.75 0-16.01-7.259-16.01-16.01c0-8.876 7.261-16.05 16.01-16.05s15.99 7.136 15.99 16.01C416 152.8 408.8 160.1 400 160.1z"/>
    </symbol>
    
    <symbol id="paw" viewBox="0 0 512 512">
        <title>Reverso</title>
        <path d="M490.39,182.75c-5.55-13.19-14.77-22.7-26.67-27.49l-.16-.06a46.46,46.46,0,0,0-17-3.2h-.64c-27.24.41-55.05,23.56-69.19,57.61-10.37,24.9-11.56,51.68-3.18,71.64,5.54,13.2,14.78,22.71,26.73,27.5l.13.05a46.53,46.53,0,0,0,17,3.2c27.5,0,55.6-23.15,70-57.65C497.65,229.48,498.78,202.72,490.39,182.75Z"/><path d="M381.55,329.61c-15.71-9.44-30.56-18.37-40.26-34.41C314.53,250.8,298.37,224,256,224s-58.57,26.8-85.39,71.2c-9.72,16.06-24.6,25-40.36,34.48-18.07,10.86-36.74,22.08-44.8,44.16a66.93,66.93,0,0,0-4.65,25c0,35.95,28,65.2,62.4,65.2,17.75,0,36.64-6.15,56.63-12.66,19.22-6.26,39.09-12.73,56.27-12.73s37,6.47,56.15,12.73C332.2,457.85,351,464,368.8,464c34.35,0,62.3-29.25,62.3-65.2a67,67,0,0,0-4.75-25C418.29,351.7,399.61,340.47,381.55,329.61Z"/><path d="M150,188.85c11.9,14.93,27,23.15,42.52,23.15a42.88,42.88,0,0,0,6.33-.47c32.37-4.76,52.54-44.26,45.92-90C242,102.3,234.6,84.39,224,71.11,212.12,56.21,197,48,181.49,48a42.88,42.88,0,0,0-6.33.47c-32.37,4.76-52.54,44.26-45.92,90C132,157.67,139.4,175.56,150,188.85Z"/><path d="M313.16,211.53a42.88,42.88,0,0,0,6.33.47c15.53,0,30.62-8.22,42.52-23.15,10.59-13.29,17.95-31.18,20.75-50.4h0c6.62-45.72-13.55-85.22-45.92-90a42.88,42.88,0,0,0-6.33-.47C315,48,299.88,56.21,288,71.11c-10.6,13.28-18,31.19-20.76,50.44C260.62,167.27,280.79,206.77,313.16,211.53Z"/><path d="M111.59,308.8l.14-.05c11.93-4.79,21.16-14.29,26.69-27.48,8.38-20,7.2-46.75-3.15-71.65C120.94,175.16,92.85,152,65.38,152a46.4,46.4,0,0,0-17,3.2l-.14.05C36.34,160,27.11,169.54,21.58,182.73c-8.38,20-7.2,46.75,3.15,71.65C39.06,288.84,67.15,312,94.62,312A46.4,46.4,0,0,0,111.59,308.8Z"/>
    </symbol>
</svg>