<svg xmlns="http://www.w3.org/2000/svg">
    <symbol id="avatar1" viewBox="0 0 64 64">
        <title>Avatar</title>
        <path d="M35.524 41.736 32 62h4l4-8-2-3 3-2 1-9-.66-.237c-1.485.92-3.499 1.617-5.816 1.973zM28.476 41.736 32 62h-4l-4-8 2-3-3-2-1-9 .66-.237c1.485.92 3.499 1.617 5.816 1.973zM42.452 7H21.548a13.397 13.397 0 0 0-2.421 4.578L19 12h26l-.127-.422A13.397 13.397 0 0 0 42.452 7z"></path>
        <path d="M48.214 40.685 47 40.28V17h2v-1a5.001 5.001 0 0 0-3.146-4.635l-.022-.074C43.984 5.136 38.426 1 32 1S20.016 5.136 18.168 11.291l-.022.074A5.001 5.001 0 0 0 15 16v1h2v13.049a6.223 6.223 0 0 0-3.543.604l-3.799 1.899.78 1.561a7.033 7.033 0 0 0 1.962 2.393 6.964 6.964 0 0 0-1.962 2.381l-.78 1.561 3.547 1.773A6.975 6.975 0 0 0 11 47.324V63h42V47.324a6.988 6.988 0 0 0-4.786-6.639zM51 47.324V53h-5.011c.001-.064.011-.127.011-.19 0-2.036-.597-4.008-1.727-5.702l-.441-.662-1.664 1.109.441.662A8.254 8.254 0 0 1 44 52.81a8.316 8.316 0 0 1-.874 3.702L42 58.764V61h-8.791l3.518-18.468c1.971-.403 3.695-1.053 5.054-1.884l5.802 1.934A4.993 4.993 0 0 1 51 47.324zm-21.585-6.492-.059.01C24.325 40.248 21 38.027 21 36c0-1.089.891-2.179 2.464-3.075C25.482 35.408 28.558 37 32 37s6.518-1.592 8.536-4.075C42.109 33.821 43 34.911 43 36c0 2.365-4.518 5-11 5-.903 0-1.763-.056-2.582-.15l-.003-.018zm-8.373-14.003A2.995 2.995 0 0 1 19 24c0-1.302.839-2.402 2-2.816V26c0 .28.021.554.042.829zM29.765 17A16.164 16.164 0 0 1 23 18.957V17h6.765zM43 21.184c1.161.414 2 1.514 2 2.816a2.995 2.995 0 0 1-2.042 2.829c.021-.275.042-.549.042-.829v-4.816zM34.693 17h4.65a10.934 10.934 0 0 1-4.615 1.867A3.855 3.855 0 0 0 34.693 17zM23 20.957a18.17 18.17 0 0 0 9.736-3.504 1.822 1.822 0 0 1-.443 1.84L30.586 21H33a12.96 12.96 0 0 0 8-2.747V26c0 4.963-4.038 9-9 9s-9-4.037-9-9v-5.043zM32 43c.903 0 1.781-.048 2.627-.138l-2.572 13.5-2.291-13.469c.727.066 1.47.107 2.236.107zm11.634-3.842C44.503 38.213 45 37.145 45 36c0-1.791-1.209-3.467-3.346-4.733.399-.728.708-1.51.935-2.326A4.945 4.945 0 0 0 45 27.975v11.638l-1.366-.455zM45 20.026a4.952 4.952 0 0 0-2-.924V17h2v3.026zM32 3c5.229 0 9.787 3.18 11.618 8H20.382C22.213 6.18 26.771 3 32 3zM20 13h24c1.304 0 2.416.836 2.829 2H17.171A3.006 3.006 0 0 1 20 13zm1 4v2.101a4.965 4.965 0 0 0-2 .924V17h2zm-2 10.974a4.945 4.945 0 0 0 2.411.966c.227.816.536 1.598.935 2.326-.51.302-.969.626-1.368.971a6.154 6.154 0 0 0-1.979-1.573v-2.69zm-4.648 4.468a4.173 4.173 0 0 1 5.294 1.342 4.424 4.424 0 0 0-.591 1.658l-.295.13a5.023 5.023 0 0 1-2.032.428 5 5 0 0 1-4.38-2.556l2.004-1.002zm.031 5.144c.741.26 1.527.414 2.345.414.887 0 1.748-.172 2.568-.495.165.421.395.827.69 1.214l-.278.417A4.18 4.18 0 0 1 16.224 41a4.21 4.21 0 0 1-1.872-.442l-2.005-1.002a4.991 4.991 0 0 1 2.036-1.97zm1.19 5.376c.216.023.434.038.651.038a6.171 6.171 0 0 0 5.147-2.755l.079-.118c1.532 1.144 3.693 2.017 6.238 2.485L30.816 61H22v-2.236l-1.126-2.252A8.32 8.32 0 0 1 20 52.81c0-1.64.481-3.228 1.391-4.593l.441-.662-1.664-1.109-.441.662A10.24 10.24 0 0 0 18 52.81c0 .064.01.127.011.19H13v-5.676c0-1.826.985-3.48 2.573-4.362zM13 55h5.246c.182.833.458 1.645.839 2.406l.915 1.83V61h-7v-6zm31 6v-1.764l.915-1.83c.381-.762.657-1.574.839-2.406H51v6h-7z"></path>
        <circle cx="27" cy="23" r="1"></circle>
        <circle cx="37" cy="23" r="1"></circle>
        <path d="M32 32c2.206 0 4-1.794 4-4h-2c0 1.103-.897 2-2 2s-2-.897-2-2h-2c0 2.206 1.794 4 4 4z"></path>
    </symbol>

    <symbol id="avatar2" viewBox="0 0 64 64">
        <title>Avatar</title>
        <path d="M47.868 6a19.42 19.42 0 0 1-10.314-2.959A13.498 13.498 0 0 0 30.396 1h-.163a13.17 13.17 0 0 0-9.387 3.896 13.162 13.162 0 0 0-3.871 9.392L17 24.003 18 24a4 4 0 0 1 4-4v-5l1 .281 8.823 2.205c1.363.341 2.765.514 4.17.514 6.554 0 12.445-3.642 15.377-9.503L52.617 6h-4.749z"></path>
        <path d="M49.354 40.637 40 37.295v-3.768a10.979 10.979 0 0 0 2.589-4.586C45.066 28.645 47 26.555 47 24v-9.97a16.99 16.99 0 0 1-2 1.439v4.556a4.952 4.952 0 0 0-2-.924V18h-5.586c-1.18 0-2.288.459-3.122 1.293a2.394 2.394 0 0 1-1.706.707h-1.172a2.398 2.398 0 0 1-1.707-.707A4.38 4.38 0 0 0 26.586 18H23v-4h-2v5.101A5.009 5.009 0 0 0 17 24c0 2.555 1.934 4.645 4.411 4.94A10.979 10.979 0 0 0 24 33.526v3.768l-9.354 3.342A7.015 7.015 0 0 0 10 47.229V63h44V47.229c0-2.952-1.867-5.6-4.646-6.592zM38 37.42l-6 3.429-6-3.429v-2.212C27.727 36.337 29.786 37 32 37s4.273-.663 6-1.792v2.212zM45 24a2.995 2.995 0 0 1-2.042 2.829c.021-.275.042-.549.042-.829v-4.816c1.161.414 2 1.514 2 2.816zm-7.586-4H41v4h-5c-.551 0-1-.448-1-1v-1.721c.252-.165.49-.354.708-.572A2.394 2.394 0 0 1 37.414 20zm-10.828 0c.645 0 1.251.251 1.707.707.218.218.456.407.708.572V23c0 .552-.449 1-1 1h-5v-4h3.585zM19 24c0-1.302.839-2.402 2-2.816V26c0 .28.021.554.042.829A2.995 2.995 0 0 1 19 24zm9 2c1.654 0 3-1.346 3-3v-1.04c.138.013.273.04.414.04h1.172c.141 0 .276-.027.414-.04V23c0 1.654 1.346 3 3 3h5c0 4.963-4.038 9-9 9s-9-4.037-9-9h5zM15.318 42.52l9.585-3.423L32 43.151l7.096-4.055 9.585 3.423A5.012 5.012 0 0 1 52 47.229V53h-6v-6h-2v14H20V47h-2v6h-6v-5.771c0-2.108 1.333-4 3.318-4.709zM12 55h6v6h-6v-6zm34 6v-6h6v6h-6z"></path>
        <path d="M32 32c2.206 0 4-1.794 4-4h-2c0 1.103-.897 2-2 2s-2-.897-2-2h-2c0 2.206 1.794 4 4 4zM5"></path>
    </symbol>

    <symbol id="avatar3" viewBox="0 0 64 64">
        <title>Avatar</title>
        <path d="M32 1c-8.271 0-15 6.729-15 15v25h1l9-3v-3h.663c-2.77-1.337-4.834-3.904-5.462-7H22a4 4 0 0 1 0-8v-1h2.757c2.716 0 5.322-1.079 7.243-3 1.921 1.921 4.526 3 7.243 3H42v1a4 4 0 0 1 0 8h-.201c-.629 3.096-2.693 5.663-5.462 7H37v3l9 3h1V16c0-8.271-6.729-15-15-15z"></path>
        <path d="M48.214 40.684 38 37.279v-2.072a11.034 11.034 0 0 0 4.589-6.267C45.066 28.645 47 26.555 47 24a5.01 5.01 0 0 0-4-4.899V16h-2v2h-1.758a9.18 9.18 0 0 1-6.535-2.707L32 14.586l-.707.707A9.18 9.18 0 0 1 24.758 18H23v-2h-2v3.101A5.009 5.009 0 0 0 17 24c0 2.555 1.934 4.645 4.411 4.94A11.026 11.026 0 0 0 26 35.207v2.072l-10.214 3.404A6.994 6.994 0 0 0 11 47.325V63h42V47.325a6.992 6.992 0 0 0-4.786-6.641zm-21.484-1.54 3.701 3.701-3.638 2.426-.738-5.901.675-.226zm10.54 0 .676.225-.738 5.901-3.638-2.426 3.7-3.7zM45 24a2.995 2.995 0 0 1-2.042 2.829c.021-.275.042-.549.042-.829v-4.816c1.161.414 2 1.514 2 2.816zm-4-4v4h-6v-4h6zm-9-2.643a11.24 11.24 0 0 0 1.665 1.164A1.991 1.991 0 0 0 33 20v1h-2v-1c0-.588-.26-1.112-.665-1.478A11.322 11.322 0 0 0 32 17.357zM24.758 20H29v4h-6v-4h1.758zM19 24c0-1.302.839-2.402 2-2.816V26c0 .28.021.554.042.829A2.995 2.995 0 0 1 19 24zm4 2h6c1.103 0 2-.897 2-2v-1h2v1c0 1.103.897 2 2 2h6c0 4.962-4.037 9-9 9s-9-4.038-9-9zm9 11c1.412 0 2.758-.277 4-.764v1.35l-4 4-4-4v-1.35c1.242.487 2.588.764 4 .764zm19 24h-6v-2.586c1.29-1.322 2-3.063 2-4.914s-.71-3.592-2-4.914V47h-2v2.414l.525.525C44.477 50.891 45 52.155 45 53.5s-.523 2.609-1.475 3.561l-.525.525V61H21v-3.414l-.525-.525C19.523 56.109 19 54.845 19 53.5s.523-2.609 1.475-3.561l.525-.525V47h-2v1.586c-1.29 1.322-2 3.063-2 4.914s.71 3.592 2 4.914V61h-6V47.325a4.994 4.994 0 0 1 3.419-4.744l7.7-2.567 1.089 8.715 6.665-4.443.127.128.127-.127 6.665 4.443 1.089-8.715 7.7 2.567A4.992 4.992 0 0 1 51 47.325V61z"></path>
        <circle cx="26" cy="22" r="1"></circle>
        <circle cx="38" cy="22" r="1"></circle>
        <path d="M36 28h-2c0 1.103-.897 2-2 2s-2-.897-2-2h-2c0 2.206 1.794 4 4 4s4-1.794 4-4zM31 49h2v2h-2zM31 53h2v2h-2zM31 57h2v2h-2z"></path>
    </symbol>

    <symbol id="avatar4" viewBox="0 0 64 64">
        <title>Avatar</title>
        <path d="M32 1c-8.271 0-15 6.729-15 15v8h1a4 4 0 0 1 4-4v-5c2.561 2.561 6.035 4 9.657 4H32l-1-4 1.84 1.227A16.515 16.515 0 0 0 42 19v1a4 4 0 0 1 4 4h1v-8c0-8.271-6.729-15-15-15zM36 46l-4-3-4 3 2 4-2 12h8l-2-12z"></path>
        <circle cx="27" cy="23" r="1"></circle>
        <circle cx="37" cy="23" r="1"></circle>
        <path d="M32 32c2.206 0 4-1.794 4-4h-2c0 1.103-.897 2-2 2s-2-.897-2-2h-2c0 2.206 1.794 4 4 4z"></path>
        <path d="M48.804 39.847 39 37.231v-2.753a11.018 11.018 0 0 0 3.589-5.538C45.066 28.645 47 26.555 47 24a5.01 5.01 0 0 0-4-4.899V14h-2v3.963a15.45 15.45 0 0 1-7.605-2.569l-3.992-2.661 1.309 5.232a12.553 12.553 0 0 1-7.711-3.405V14h-2v5.101a5.009 5.009 0 0 0-4 4.899c0 2.555 1.934 4.645 4.411 4.94a11.018 11.018 0 0 0 3.589 5.538v2.753l-9.804 2.615A7.008 7.008 0 0 0 10 46.609V63h44V46.609a7.006 7.006 0 0 0-5.196-6.762zM52 46.609V54h-5.96a35.872 35.872 0 0 1 2.665-12.072c1.956.714 3.295 2.57 3.295 4.681zm-34.774-5.234L23 39.835v9.97l8.916-5.573.085-.057.083.057L41 49.805v-9.97l5.774 1.54A37.851 37.851 0 0 0 44 55.616V61H20v-5.384c0-4.913-.94-9.699-2.774-14.241zM38.243 39.1l.757.202v6.893l-5.299-3.311 4.542-3.784zM45 24a2.995 2.995 0 0 1-2.042 2.829c.021-.275.042-.549.042-.829v-4.816c1.161.414 2 1.514 2 2.816zm-26 0c0-1.302.839-2.402 2-2.816V26c0 .28.021.554.042.829A2.995 2.995 0 0 1 19 24zm4 2v-8.848A14.53 14.53 0 0 0 31.657 20h1.624l-.686-2.738a17.453 17.453 0 0 0 8.404 2.703V26c0 4.963-4.037 9-9 9S23 30.963 23 26zm9 11c1.801 0 3.498-.444 5-1.214v1.745l-5 4.167-5-4.167v-1.745A10.928 10.928 0 0 0 32 37zm-6.243 2.1 4.542 3.784L25 46.195v-6.893l.757-.202zm-10.463 2.828A35.848 35.848 0 0 1 17.959 54H12v-7.391c0-2.111 1.339-3.967 3.294-4.681zM12 56h6v5h-6v-5zm34 5v-5h6v5h-6z"></path>
    </symbol>

    <symbol id="avatar5" viewBox="0 0 64 64">
        <title>Avatar</title>
        <path d="M55.217 33.023A10.43 10.43 0 0 1 47 22.78V16c0-8.271-6.729-15-15-15S17 7.729 17 16v6.78a10.43 10.43 0 0 1-8.217 10.243l-1.325.295 1.201 2.1a13.089 13.089 0 0 0 7.814 6.091L27 38v-3h.648a10.015 10.015 0 0 1-5.447-7H22a4 4 0 0 1 0-8v-2h2a10 10 0 0 0 8-4 10 10 0 0 0 8 4h2v2a4 4 0 0 1 0 8h-.201a10.015 10.015 0 0 1-5.447 7H37v3l10.527 3.509a13.089 13.089 0 0 0 7.814-6.091l1.201-2.1-1.325-.295z"></path>
        <path d="M48.214 40.684 38 37.279v-2.072a11.034 11.034 0 0 0 4.589-6.267C45.066 28.645 47 26.555 47 24a5.01 5.01 0 0 0-4-4.899V16h-2v1h-1a9.044 9.044 0 0 1-7.2-3.6l-.8-1.067-.8 1.067A9.044 9.044 0 0 1 24 17h-1v-1h-2v3.101A5.009 5.009 0 0 0 17 24c0 2.555 1.934 4.645 4.411 4.94A11.026 11.026 0 0 0 26 35.207v2.072l-10.214 3.404A6.993 6.993 0 0 0 11 47.325V63h42V47.325a6.99 6.99 0 0 0-4.786-6.641zM45 24a2.995 2.995 0 0 1-2.042 2.829c.021-.275.042-.549.042-.829v-4.816c1.161.414 2 1.514 2 2.816zm-26 0c0-1.302.839-2.402 2-2.816V26c0 .28.021.554.042.829A2.995 2.995 0 0 1 19 24zm4 2v-7h1c3.028 0 5.937-1.272 8-3.452A11.062 11.062 0 0 0 40 19h1v7c0 4.962-4.038 9-9 9s-9-4.038-9-9zm9 11c1.412 0 2.758-.277 4-.764v1.57c-.217.476-1.192 2.194-4 2.194-2.785 0-3.772-1.703-4-2.196v-1.568c1.242.487 2.588.764 4 .764zm-5.497 2.22C27.19 40.312 28.773 42 32 42s4.81-1.688 5.497-2.78l1.278.426-1.616 5.656L32 47.882l-5.159-2.58-1.616-5.656 1.278-.426zM13 61V47.325a4.994 4.994 0 0 1 3.419-4.744l1.796-.599 1.678 6.711-.749.749A7.27 7.27 0 0 0 17 54.618a7.304 7.304 0 0 0 3 5.909V61h-7zm8.369-1.956A5.308 5.308 0 0 1 19 54.618c0-1.421.553-2.757 1.558-3.762l1.549-1.549-1.99-7.959 3.207-1.069 1.834 6.419L32 50.118l6.841-3.42 1.834-6.419 2.977.992-1.759 7.035 1.549 1.549A5.289 5.289 0 0 1 45 53.618a5.305 5.305 0 0 1-2.369 4.426l-.631.421V61H22v-1.535l-.631-.421zM51 61h-7v-1.473a7.304 7.304 0 0 0 3-5.909 7.271 7.271 0 0 0-2.144-5.176l-.749-.749 1.447-5.788 2.027.676A4.994 4.994 0 0 1 51 47.325V61z"></path>
        <circle cx="27" cy="22" r="1"></circle>
        <circle cx="37" cy="22" r="1"></circle>
        <path d="M36 28h-2c0 1.103-.897 2-2 2s-2-.897-2-2h-2c0 2.206 1.794 4 4 4s4-1.794 4-4z"></path>
        <path d="M32 46c-1.654 0-3-1.346-3-3s1.346-3 3-3 3 1.346 3 3-1.346 3-3 3z"></path>
    </symbol>

    <symbol id="avatar6" viewBox="0 0 64 64">
        <title>Avatar</title>
        <path d="M49.801 9.601a13.084 13.084 0 0 0-5.896-2.458 8.259 8.259 0 0 1 3.412-2.194L50.161 4l-4.603-1.534a11.709 11.709 0 0 0-8.547.422l-1.001-.501A13.195 13.195 0 0 0 30.135 1C22.893 1 17 6.893 17 14.135V24h1a4 4 0 0 1 4-4v-1h.169c3.815 0 7.559-1.037 10.831-3a8.478 8.478 0 0 1-.894 3.789L32 20a29.435 29.435 0 0 0 9.372-3.623L42 16v4a4 4 0 0 1 4 4h1v-7.947a3.464 3.464 0 0 1 1.54-2.877l3.19-2.128-1.929-1.447z"></path>
        <path d="M47.923 39.795 39 37.246v-2.768a11.018 11.018 0 0 0 3.589-5.538C45.066 28.645 47 26.555 47 24a5.01 5.01 0 0 0-4-4.899v-4.867l-2.142 1.285a28.32 28.32 0 0 1-7.22 3.07A9.526 9.526 0 0 0 34 16v-1.766l-1.515.909A20.055 20.055 0 0 1 23 17.983V16h-2v3.101A5.009 5.009 0 0 0 17 24c0 2.555 1.934 4.645 4.411 4.94A11.018 11.018 0 0 0 25 34.478v2.768l-8.923 2.549A7.028 7.028 0 0 0 11 46.525V63h42V46.525a7.028 7.028 0 0 0-5.077-6.73zM45 24a2.995 2.995 0 0 1-2.042 2.829c.021-.275.042-.549.042-.829v-4.816c1.161.414 2 1.514 2 2.816zm-26 0c0-1.302.839-2.402 2-2.816V26c0 .28.021.554.042.829A2.995 2.995 0 0 1 19 24zm4 2v-6.016a22.073 22.073 0 0 0 8.78-2.189 7.469 7.469 0 0 1-.569 1.546l-1.02 2.04 2.005-.401A30.365 30.365 0 0 0 41 17.746V26c0 4.962-4.038 9-9 9s-9-4.038-9-9zm9 11c1.801 0 3.498-.444 5-1.214v2.068c-.171.519-1.221 3.146-5 3.146-3.768 0-4.82-2.602-5-3.148v-2.066A10.928 10.928 0 0 0 32 37zm-15.374 4.719 8.77-2.507C26.215 40.878 28.223 43 32 43s5.785-2.122 6.603-3.788l8.771 2.507A5.019 5.019 0 0 1 51 46.525V53h-5v-6h-2v14H20V47h-2v6h-5v-6.475a5.019 5.019 0 0 1 3.626-4.806zM13 55h5v6h-5v-6zm33 6v-6h5v6h-5z"></path>
        <circle cx="27" cy="23" r="1"></circle>
        <circle cx="37" cy="23" r="1"></circle>
        <path d="M32 32c2.206 0 4-1.794 4-4h-2c0 1.103-.897 2-2 2s-2-.897-2-2h-2c0 2.206 1.794 4 4 4zM23 54h2v-7h-3v2h1zM28 54h2v-7h-3v2h1z"></path>
    </symbol>
</svg>