<svg xmlns="http://www.w3.org/2000/svg" version="1.1" xmlns:xlink="http://www.w3.org/1999/xlink" xmlns:svgjs="http://svgjs.com/svgjs" width="24" height="24"><svg fill="none" height="24" viewBox="0 0 24 24" width="24" xmlns="http://www.w3.org/2000/svg"><path clip-rule="evenodd" d="M5 3H19V16.7861L15.5522 21H5V3ZM3 3C3 1.89545 3.89551 1 5 1H19C20.1045 1 21 1.89545 21 3V16.7861C21 17.2477 20.8403 17.6953 20.5479 18.0526L17.1001 22.2665C16.7202 22.7308 16.1521 23 15.5522 23H5C3.89551 23 3 22.1046 3 21V3ZM8 6H16V10H8V6ZM6 6C6 4.89545 6.89551 4 8 4H16C17.1045 4 18 4.89545 18 6V10C18 11.1046 17.1045 12 16 12H8C6.89551 12 6 11.1046 6 10V6ZM9.5 19.5C8.94775 19.5 8.5 19.0523 8.5 18.5V17.5H7.5C6.94775 17.5 6.5 17.0523 6.5 16.5C6.5 15.9477 6.94775 15.5 7.5 15.5H8.5V14.5C8.5 13.9477 8.94775 13.5 9.5 13.5C10.0522 13.5 10.5 13.9477 10.5 14.5V15.5H11.5C12.0522 15.5 12.5 15.9477 12.5 16.5C12.5 17.0523 12.0522 17.5 11.5 17.5H10.5V18.5C10.5 19.0523 10.0522 19.5 9.5 19.5ZM18 15C18 15.5523 17.5522 16 17 16C16.4478 16 16 15.5523 16 15C16 14.4477 16.4478 14 17 14C17.5522 14 18 14.4477 18 15ZM15 19C15.5522 19 16 18.5523 16 18C16 17.4477 15.5522 17 15 17C14.4478 17 14 17.4477 14 18C14 18.5523 14.4478 19 15 19Z" fill="black" fill-rule="evenodd"></path></svg><style>@media (prefers-color-scheme: light) { :root { filter: none; } }
@media (prefers-color-scheme: dark) { :root { filter: invert(100%); } }
</style></svg>