<svg xmlns="http://www.w3.org/2000/svg">
    <symbol id="rock" viewBox="0 0 150 150">
        <title>Rock</title>
        <path d="M86.6914,39.2339c1.68-.9693,3.6338-.8311,5.9732.4219,5.3239,2.8471,4.2489,10.2421,4.083,11.2088a41.4386,41.4386,0,0,0-2.3531,7.4528c-.4923,2.1469-.8591,4.0559-1.1056,5.7552-1.4447,3.032-3.153,4.8928-5.0843,5.5212-2.7738.9127-4.9731.6919-6.5622-.63a10.2869,10.2869,0,0,0,.9357-3.62c.2324-2.8964-.3833-5.12-1.8813-6.7968a7.724,7.724,0,0,0-.5894-.5689c.1755-3.7389,1.1851-11.6915,4.0636-16.164.0075-.0124.0148-.024.0217-.0367A7.6767,7.6767,0,0,1,86.6914,39.2339Z"/><path d="M71.1475,34.7935A7.3264,7.3264,0,0,1,76.88,33.1187c4.4453.5581,5.0693,3.9648,5.3052,7.1147.0252.3375.0476.616.079.86-2.9209,4.82-3.8137,12.2243-4.0745,15.5812a18.95,18.95,0,0,0-7.98-1.686,37.8925,37.8925,0,0,0-7.5043.6517C63.2629,51.6053,65.3868,39.399,71.1475,34.7935Z"/><path d="M55.6133,34.74c2.8716-1.331,5.21-1.5634,6.9512-.6919a6.77,6.77,0,0,1,3.1267,4.483c-3.4994,6.4019-4.7525,14.98-5.0594,17.5162A46.0535,46.0535,0,0,0,45.4484,62.13C45.792,56.1483,47.489,38.5071,55.6133,34.74Z"/><path d="M111.05,56.5454c-.1616,4.2627-1.332,9.5537-2.814,16.252-.791,3.5756-1.6875,7.6284-2.53,12.0234-2.2774,11.875-12.9439,19.7261-13.0513,19.8037l-.4136.3v12.021H57.8159V103.3491l-.3594-.3c-.186-.1553-18.6157-15.6684-18.5341-27.9057.02-3.086,1.4248-5.9908,4.1748-8.6343,6.831-6.5674,20.0927-9.7573,27.0473-9.522,4.4278.145,7.4761,1.1182,9.0606,2.8921,1.13,1.2651,1.5683,2.9507,1.38,5.3052-.27,3.373-1.9356,7.4092-12.5083,8.688-6.1978.749-10.0171,7.4692-10.1768,7.7548a1,1,0,0,0,1.7456.9766c.0342-.0615,3.4912-6.12,8.6714-6.7461,6.0366-.73,10.0513-2.415,12.2543-5.1769A7.2216,7.2216,0,0,0,85.0977,72.15a11.957,11.957,0,0,0,3.7285-.6553,8.8608,8.8608,0,0,0,4.0921-3.019,9.1279,9.1279,0,0,0,1.2834,5.435,4.9525,4.9525,0,0,0,3.7959,1.9664l.4336.0434c4.5615.4688,8.916-.2612,11.9575-14.1875a1,1,0,0,0-1.9541-.4267c-2.9117,13.333-6.57,12.958-9.7989,12.6245l-.4487-.045a3.0007,3.0007,0,0,1-2.3638-1.146c-1.3515-1.8725-1.1762-6.5742.5206-13.9751,3.1982-13.9487,7.6479-13.0009,10.3066-12.437C108.999,46.8276,111.3589,48.4321,111.05,56.5454Z"/>
    </symbol>

    <symbol id="scissors" viewBox="0 0 150 150">
        <title>Scissors</title>
        <path d="M92.665,61.271c5.33,2.85,4.2459,10.26,4.0814,11.2132a41.438,41.438,0,0,0-2.3519,7.4484c-.4926,2.1478-.86,4.0575-1.1062,5.7573-1.445,3.0313-3.1539,4.8914-5.0842,5.5191-2.7746.9126-4.9723.6923-6.5616-.63a10.2917,10.2917,0,0,0,.9366-3.62c.2314-2.897-.3848-5.12-1.8828-6.7974a7.72,7.72,0,0,0-.5894-.5686c.2235-4.6772,1.75-15.9569,6.5865-18.7454C88.3721,59.88,90.3252,60.0181,92.665,61.271Z"/><path d="M46.1919,56.4824c-.0981-2.0737-.2881-4.6245-.49-7.3247-.91-12.1963-2.2846-30.6269,2.688-36.1665a4.3434,4.3434,0,0,1,3.2193-1.5474c8.4463-.2709,9.4282,14.3863,10.8413,34.6856.334,4.791.6787,9.7451,1.15,14.9585l.3818,4.2163,1.5454-3.9414c.0718-.1836,7.2144-18.4541,10.1323-30.3809l.43-1.77c1.8321-7.5581,3.2783-13.5273,6.7813-15.6528,1.5488-.94,3.5117-1.0991,5.9961-.4844a3.9188,3.9188,0,0,1,2.5605,2.2769c4.1618,8.3138-2.5522,33.3391-7.5268,45.187-4.2386,4.3951-5.4045,13.8346-5.7115,17.7524a18.9527,18.9527,0,0,0-7.98-1.687c-6.0349-.1908-17.1421,2.0308-24.9475,7.2625A214.0194,214.0194,0,0,0,46.1919,56.4824Z"/><path d="M111.0508,78.1606c-.1621,4.2623-1.332,9.5523-2.8135,16.2491-.791,3.5761-1.6875,7.63-2.5312,12.0263-2.2774,11.875-12.9434,19.7261-13.0518,19.8037l-.4131.3v12.0209H57.8159V124.9648l-.3594-.3c-.186-.1552-18.6157-15.6777-18.5341-27.9062.02-3.0859,1.4248-5.9907,4.1748-8.6343,6.831-6.5674,20.103-9.7539,27.0473-9.522,4.4273.1455,7.4756,1.1182,9.0606,2.8921,1.13,1.2647,1.5683,2.9507,1.38,5.3052-.27,3.3735-1.9356,7.41-12.5083,8.688-6.1978.75-10.0171,7.47-10.1768,7.7554a1,1,0,0,0,1.7461.9756c.0342-.0616,3.4717-6.1167,8.6709-6.7457,6.0366-.73,10.051-2.4145,12.2542-5.1764a7.2258,7.2258,0,0,0,4.5266,1.4689,11.9639,11.9639,0,0,0,3.7285-.6557,8.859,8.859,0,0,0,4.0916-3.0187,9.1268,9.1268,0,0,0,1.2834,5.4342,4.954,4.954,0,0,0,3.7968,1.9668l.4327.0434c4.5683.47,8.917-.26,11.957-14.187a1,1,0,1,0-1.9531-.4267c-2.9112,13.333-6.5674,12.9565-9.7989,12.624l-.4482-.0449a3,3,0,0,1-2.3643-1.146c-1.3515-1.8726-1.1767-6.5747.5206-13.9751,3.1982-13.9483,7.6494-13.001,10.3066-12.437C108.999,68.4429,111.3584,70.0474,111.0508,78.1606Z"/>
    </symbol>

    <symbol id="paper" viewBox="0 0 150 150">
        <title>Paper</title>
        <path d="M116.5244,82.5063a98.1476,98.1476,0,0,1-.8232,22.4517c-2.585,19.5728-14.1436,27.833-14.26,27.9141l-.43.2993v12.0327H66.5859l-.0019-13.7588-.5684-.272c-.1152-.0551-11.65-5.7627-17.4316-24.3393-2.2715-7.2984-6.0557-13.8086-9.3936-19.5523-5.9443-10.23-9.0381-16.2041-3.5019-20.0522a5.4525,5.4525,0,0,1,4.2373-1.1148c3.79.7164,7.3086,5.9747,10.7109,11.06,3.13,4.6768,6.085,9.0942,9.5713,10.811,1.7979.8858,3.3926,1.5777,4.8,2.188,5.3008,2.2993,7.961,3.4536,10.54,10.0454a1,1,0,0,0,1.8632-.7285c-2.8828-7.3667-6.167-8.7915-11.6074-11.1513-1.3867-.6016-2.958-1.2832-4.7129-2.1475a15.0233,15.0233,0,0,1-4.5836-4.1874c.1857-3.9114,1.8314-38.7694,1.9508-47.6334.0088-.6626.0147-1.3506.02-2.0566.0752-8.8506.1787-20.9727,7.0371-21.0767.0664-.001.13-.0015.1944-.0015,6.878,0,8.1341,5.6833,8.451,19.1389-.8509,13.6342-2.2355,34.2112-2.2538,34.4764a1,1,0,0,0,.9307,1.0649c.0234.002.0459.0024.0683.0024a1.0009,1.0009,0,0,0,.9971-.9326c.0225-.3418,2.3037-34.2466,2.81-43.8447.3447-6.5557,1.0332-12.95,3.7139-15.3257a4.1761,4.1761,0,0,1,3.22-1.0058,7.2359,7.2359,0,0,1,5.3447,2.3315c2.2177,2.5574,3.0206,7.5162,2.4567,15.155-.7765,3.5056-.8928,7.9243-1.0133,12.7337-.04,1.5708-.08,3.1743-.1455,4.7837-.5039,12.3383-1.8975,26.7363-1.9112,26.88a1,1,0,0,0,.8985,1.0918.9245.9245,0,0,0,.0976.0049,1,1,0,0,0,.9942-.9033c.0146-.1445,1.413-14.5967,1.9189-26.9917.0664-1.6206.1065-3.2344.1465-4.8159.1875-7.4527.3643-14.4922,3.2793-17.2158a5.1846,5.1846,0,0,1,3.958-1.2657,4.51,4.51,0,0,1,3.333,1.5235c3.4111,3.8017,2.749,13.91,2.2178,22.0327-.0742,1.1206-.1455,2.2114-.2041,3.2549,0,.0057.0025.0106.0023.0163-.4875,4.0428-.5893,8.8372-.6888,13.7708-.2159,10.6684-.61,12.622-.6836,12.8974a1,1,0,0,0,1.6972,1.024c.2168-.27.7237-.9034.9864-13.8814.1914-9.5073.39-19.3384,3.5859-22.0835a3.0941,3.0941,0,0,1,2.56-.69c5.9648.7881,5.0019,15.6426,3.9834,31.37A115.14,115.14,0,0,0,116.5244,82.5063Z"/>
    </symbol>

    <symbol id="lizard" viewBox="0 0 150 150">
        <title>Lizard</title>
        <path d="M34.397,129.5381H65.1519c-.8-5.7139-3.6-30.14,5.9624-36.5947,9-6.0743,16.5288-12.8809,22.5786-18.3506l2.2065-1.99c.9551-.8574,1.9131-1.6679,2.8316-2.4453,3.1757-2.6865,5.9184-5.0058,5.9721-7.1982.0259-1.0781-.6035-2.2012-1.9243-3.4336C100.18,57.1006,94.3926,59.5,88.2656,62.04c-5.7866,2.3985-11.7685,4.88-16.4233,3.8575-5.8208-1.2754-10.5689-6.0909-10.584-10.7344-.0112-3.56,2.7275-6.2217,7.5146-7.3027,12.544-2.8331,16.856-2.7891,21.2774-1.6524,1.0483.27,2.6909.84,4.7705,1.5615,5.6494,1.961,17.4043,6.04,19.8315,3.7813,1.5459-1.44,3.1587-3.1045,3.0376-4.834a.951.951,0,0,1-.0175-.17c-.0093-.0655-.02-.1319-.0352-.1973-.3755-1.7392-2.8188-4.4814-12.3242-7.6719-5.2388-1.7588-9.2061-3.35-12.3936-4.6279-7.6972-3.0859-10.8823-4.3633-17.5127-2.3828-9.7368,2.9082-25.7939,6.9912-25.955,7.0312a1,1,0,1,1-.4922-1.9375c.1606-.041,16.1782-4.1142,25.875-7.01,7.2973-2.18,10.9121-.7315,18.8291,2.4424,3.164,1.2685,7.1015,2.8476,12.2861,4.5878,7.8584,2.6387,12.1558,5.2979,13.3818,8.3057a4.3653,4.3653,0,0,0,2.2486-2.791c.5849-3.6709-8.354-7.1191-15.5366-9.89-2.54-.9785-4.9375-1.9042-6.9576-2.831-2.3486-1.0791-4.7646-2.375-7.1015-3.6279-5.7027-3.06-11.5982-6.2217-15.2207-5.3321-3.05.752-8.92,3.7315-14.5967,6.6123-4.32,2.1934-8.4009,4.2647-11.0781,5.2686-.8394.3144-1.7134.6279-2.6006.9453-5.2627,1.8848-11.2276,4.0215-12.1914,7.4922-1.271,4.5752-8.3867,40.7549-7.8809,47.831C28.8735,95.1689,33.5361,124.208,34.397,129.5381Z"/>
    </symbol>

    <symbol id="spock" viewBox="0 0 150 150">
        <title>Spock</title>
        <path d="M117.4238,53.2119a160.6628,160.6628,0,0,0-2.3662,17.084,121.4723,121.4723,0,0,0-.1982,14.7148c.1816,4.51.3388,8.4043-1.1992,20.0528-2.585,19.5732-14.1436,27.833-14.26,27.914l-.43.2989v12.0322H64.5449v-13.76l-.5718-.27c-.1157-.0547-11.6279-5.6963-17.4306-24.3388-2.2715-7.2989-6.0552-13.8086-9.3931-19.5528-5.9443-10.2285-9.0381-16.2031-3.5015-20.0517A5.46,5.46,0,0,1,37.8848,66.22c3.79.7168,7.3081,5.9746,10.7109,11.0606,3.13,4.6767,6.0855,9.0947,9.5713,10.8115,1.7983.8857,3.3935,1.5771,4.8008,2.1875,5.3,2.3,7.96,3.4531,10.54,10.0449a1,1,0,1,0,1.8623-.7285c-2.8828-7.3662-6.1665-8.791-11.6064-11.15-1.3863-.6015-2.958-1.2842-4.7129-2.1484a15.517,15.517,0,0,1-4.7663-4.4179c.1218-1.1966.3023-4.8258-.0472-15.254-.1948-5.8125-1.28-13.3037-2.4287-21.2344-2.0332-14.0381-4.564-31.5088-.1514-33.748,2.5059-1.2715,4.4712-1.52,6.01-.7569,3.9731,1.9678,5.5478,10.5577,7.5415,21.4327l.5483,2.9775.0006.0013c.1414.9555.28,1.92.4135,2.9,2.4043,17.7158,4.4648,26.5605,4.4853,26.6484a1,1,0,0,0,1.9473-.458c-.02-.0869-2.0615-8.8545-4.4512-26.46-.4638-3.4209-.9882-6.6718-1.4951-9.8164-2.0556-12.7519-3.541-21.9658,1.95-23.1562,2.3643-.5127,4.2119-.2852,5.6494.6992,3.2163,2.1992,4.147,8.07,5.0474,13.7471.2148,1.3545.43,2.705.6728,4.0117,1.7657,9.457,7.0811,41.0508,7.1348,41.3691l.5332,3.17,1.3594-2.913c.0986-.211,1.0332-2.667,3.5332-23.667,1.7959-15.084,3.9043-22.5723,7.05-25.04a4.562,4.562,0,0,1,3.581-.8935,3.7264,3.7264,0,0,1,2.6377,1.501c1.1758,1.5478,2.32,5.1132,1.09,13.3154-.7525,5.0153-2.5186,24.4888-2.635,25.7768-2.3946,11.5417-2.72,14.3423-2.7322,14.4576a1,1,0,0,0,1.9883.22c.0029-.0283.3515-3.0078,2.8779-15.1231.582-2.7871,1.0566-5.4951,1.4766-7.8847,1.8857-10.7549,3.0273-15.8789,8.207-14.9932a3.06,3.06,0,0,1,2.1,1.2744C120.2822,36.97,118.8936,44.8594,117.4238,53.2119Z"/>
    </symbol>
</svg>