<svg xmlns="http://www.w3.org/2000/svg">
    <symbol id="player" viewBox="0 0 16 16">
        <title>Player</title>
        <path d="M3 14s-1 0-1-1 1-4 6-4 6 3 6 4-1 1-1 1H3zm5-6a3 3 0 1 0 0-6 3 3 0 0 0 0 6z"/>
    </symbol>

    <symbol id="ia" viewBox="0 0 576 512">
        <title>IA</title>
        <path d="M528 0h-480C21.5 0 0 21.5 0 48v320C0 394.5 21.5 416 48 416h192L224 464H152C138.8 464 128 474.8 128 488S138.8 512 152 512h272c13.25 0 24-10.75 24-24s-10.75-24-24-24H352L336 416h192c26.5 0 48-21.5 48-48v-320C576 21.5 554.5 0 528 0zM512 288H64V64h448V288z"/>
    </symbol>

    <symbol id="gh" viewBox="0 0 512 512">
        <title>Github</title>
        <path d="M511.563,249.407l0.438-4.671c-28.455-2.751-56.752-2.985-84.252-0.907  c4.424-13.937,6.734-29.688,6.564-47.578c-0.344-38.047-13.189-67.656-33.33-92.219c3.875-23.171,0.969-46.312-6.359-69.468  c-28.812,2.328-54.749,11.641-77.827,27.859c-43.172-8.672-86.313-9.203-129.484,0c-26.92-17.968-53.375-26.781-79.391-27.859  c-7.733,25.5-8.92,50.641-2.407,75.343c-22.703,23.829-31.389,52.75-30.951,84.781c0.232,18.329,3.092,34.626,8.357,49.063  C55.845,241.782,28,242.033,0,244.736l0.438,4.671c28.546-2.733,56.89-2.969,84.404-0.827c1.017,2.421,2.049,4.827,3.189,7.156  c-29.827-0.781-56.689,1.78-81.812,7.89l1.124,4.564c25.533-6.189,52.877-8.689,83.408-7.674  c20.171,35.453,59.031,56.281,115.639,62.893c-13.173,10.529-20.218,22.998-22.03,37.092c0,0-5.968,0-29.97,0  c-40.265,0-51.248-50.75-92.951-45.734c40.452,19.846,32.39,83.205,97.107,83.205c21.752,0,26.393,0,27.188,0v58.076  c0.297,9.393-3.844,15.656-10.516,20.018c23.172,2.311,40.608-9.111,40.608-23.158c0-14.029,0-69.938,0-76.75  c0-6.875,7.251-7.406,7.251-7.406v89.641c0.282,8.938-4.094,14.016-8.75,18.859c20.438,0.799,39.641-3.217,40.515-20.438  c0,0,0-81.438,0-85.766c0-4.313,7.141-4.422,7.141,0c0,4.424,0,81.766,0,81.766c0.219,14.484,12.877,26.25,39.688,24.438  c-7.141-5.732-9.359-11.5-9.359-19.844c0-8.342,0-88.656,0-88.656s7.391-0.357,7.391,7.406c0,7.703,0,61.797,0,74.734  c0,16.658,20.232,23.531,43.297,22.877c-7.547-5.611-12.688-12.283-12.703-21.205v-89.906c-0.797-13.219-6.234-25.688-16.889-37.279  c51.717-7.861,89.013-28.283,107.591-64.846c30.641-1.047,58.049,1.438,83.672,7.658l1.127-4.564  c-25.361-6.156-52.424-8.718-82.564-7.89c1.063-2.329,2.094-4.642,2.967-7.094C454.045,246.438,482.701,246.658,511.563,249.407z   M79.546,322.331c-1.28,0-2.344-0.736-2.344-1.58c0-0.906,1.064-1.625,2.344-1.625c1.249,0,2.297,0.719,2.297,1.625  C81.844,321.595,80.795,322.331,79.546,322.331z M86.767,327.235c-1.393,0-2.563-0.795-2.563-1.795s1.171-1.783,2.563-1.783  c1.421,0,2.561,0.783,2.561,1.783S88.188,327.235,86.767,327.235z M94.125,333.581c-1.671,0-2.986-0.938-2.986-2.096  c0-1.188,1.314-2.125,2.986-2.125c1.656,0,2.999,0.938,2.999,2.125C97.124,332.644,95.781,333.581,94.125,333.581z M101.28,341.188  c-1.938,0-3.515-1.094-3.515-2.451c0-1.361,1.577-2.455,3.515-2.455c1.94,0,3.518,1.094,3.518,2.455  C104.797,340.095,103.22,341.188,101.28,341.188z M109.125,349.813c-2.141,0-3.893-1.234-3.893-2.719c0-1.531,1.752-2.75,3.893-2.75  c2.188,0,3.922,1.219,3.922,2.75C113.047,348.579,111.313,349.813,109.125,349.813z M118.25,358.563  c-2.391,0-4.313-1.359-4.313-3.031c0-1.688,1.922-3.063,4.313-3.063c2.422,0,4.344,1.375,4.344,3.063  C122.593,357.204,120.672,358.563,118.25,358.563z M130.578,366.876c-2.657,0-4.813-1.5-4.813-3.375s2.156-3.373,4.813-3.373  c2.657,0,4.813,1.498,4.813,3.373S133.234,366.876,130.578,366.876z M145.86,371.345c-2.641,0-4.845-1.531-4.845-3.375  c0-1.875,2.204-3.391,4.845-3.391c2.639,0,4.827,1.516,4.827,3.391C150.687,369.813,148.499,371.345,145.86,371.345z   M161.969,371.829c-2.673,0-4.829-1.5-4.829-3.344c0-1.891,2.156-3.391,4.829-3.391c2.654,0,4.779,1.5,4.779,3.391  C166.749,370.329,164.624,371.829,161.969,371.829z M177.859,372.157c-2.642,0-4.813-1.5-4.813-3.406  c0-1.844,2.172-3.359,4.813-3.359c2.657,0,4.813,1.516,4.813,3.359C182.672,370.657,180.516,372.157,177.859,372.157z"/>
    </symbol>

    <symbol id="gh" viewBox="0 0 512 512">
        <title>Github</title>
        <path d="M511.563,249.407l0.438-4.671c-28.455-2.751-56.752-2.985-84.252-0.907  c4.424-13.937,6.734-29.688,6.564-47.578c-0.344-38.047-13.189-67.656-33.33-92.219c3.875-23.171,0.969-46.312-6.359-69.468  c-28.812,2.328-54.749,11.641-77.827,27.859c-43.172-8.672-86.313-9.203-129.484,0c-26.92-17.968-53.375-26.781-79.391-27.859  c-7.733,25.5-8.92,50.641-2.407,75.343c-22.703,23.829-31.389,52.75-30.951,84.781c0.232,18.329,3.092,34.626,8.357,49.063  C55.845,241.782,28,242.033,0,244.736l0.438,4.671c28.546-2.733,56.89-2.969,84.404-0.827c1.017,2.421,2.049,4.827,3.189,7.156  c-29.827-0.781-56.689,1.78-81.812,7.89l1.124,4.564c25.533-6.189,52.877-8.689,83.408-7.674  c20.171,35.453,59.031,56.281,115.639,62.893c-13.173,10.529-20.218,22.998-22.03,37.092c0,0-5.968,0-29.97,0  c-40.265,0-51.248-50.75-92.951-45.734c40.452,19.846,32.39,83.205,97.107,83.205c21.752,0,26.393,0,27.188,0v58.076  c0.297,9.393-3.844,15.656-10.516,20.018c23.172,2.311,40.608-9.111,40.608-23.158c0-14.029,0-69.938,0-76.75  c0-6.875,7.251-7.406,7.251-7.406v89.641c0.282,8.938-4.094,14.016-8.75,18.859c20.438,0.799,39.641-3.217,40.515-20.438  c0,0,0-81.438,0-85.766c0-4.313,7.141-4.422,7.141,0c0,4.424,0,81.766,0,81.766c0.219,14.484,12.877,26.25,39.688,24.438  c-7.141-5.732-9.359-11.5-9.359-19.844c0-8.342,0-88.656,0-88.656s7.391-0.357,7.391,7.406c0,7.703,0,61.797,0,74.734  c0,16.658,20.232,23.531,43.297,22.877c-7.547-5.611-12.688-12.283-12.703-21.205v-89.906c-0.797-13.219-6.234-25.688-16.889-37.279  c51.717-7.861,89.013-28.283,107.591-64.846c30.641-1.047,58.049,1.438,83.672,7.658l1.127-4.564  c-25.361-6.156-52.424-8.718-82.564-7.89c1.063-2.329,2.094-4.642,2.967-7.094C454.045,246.438,482.701,246.658,511.563,249.407z   M79.546,322.331c-1.28,0-2.344-0.736-2.344-1.58c0-0.906,1.064-1.625,2.344-1.625c1.249,0,2.297,0.719,2.297,1.625  C81.844,321.595,80.795,322.331,79.546,322.331z M86.767,327.235c-1.393,0-2.563-0.795-2.563-1.795s1.171-1.783,2.563-1.783  c1.421,0,2.561,0.783,2.561,1.783S88.188,327.235,86.767,327.235z M94.125,333.581c-1.671,0-2.986-0.938-2.986-2.096  c0-1.188,1.314-2.125,2.986-2.125c1.656,0,2.999,0.938,2.999,2.125C97.124,332.644,95.781,333.581,94.125,333.581z M101.28,341.188  c-1.938,0-3.515-1.094-3.515-2.451c0-1.361,1.577-2.455,3.515-2.455c1.94,0,3.518,1.094,3.518,2.455  C104.797,340.095,103.22,341.188,101.28,341.188z M109.125,349.813c-2.141,0-3.893-1.234-3.893-2.719c0-1.531,1.752-2.75,3.893-2.75  c2.188,0,3.922,1.219,3.922,2.75C113.047,348.579,111.313,349.813,109.125,349.813z M118.25,358.563  c-2.391,0-4.313-1.359-4.313-3.031c0-1.688,1.922-3.063,4.313-3.063c2.422,0,4.344,1.375,4.344,3.063  C122.593,357.204,120.672,358.563,118.25,358.563z M130.578,366.876c-2.657,0-4.813-1.5-4.813-3.375s2.156-3.373,4.813-3.373  c2.657,0,4.813,1.498,4.813,3.373S133.234,366.876,130.578,366.876z M145.86,371.345c-2.641,0-4.845-1.531-4.845-3.375  c0-1.875,2.204-3.391,4.845-3.391c2.639,0,4.827,1.516,4.827,3.391C150.687,369.813,148.499,371.345,145.86,371.345z   M161.969,371.829c-2.673,0-4.829-1.5-4.829-3.344c0-1.891,2.156-3.391,4.829-3.391c2.654,0,4.779,1.5,4.779,3.391  C166.749,370.329,164.624,371.829,161.969,371.829z M177.859,372.157c-2.642,0-4.813-1.5-4.813-3.406  c0-1.844,2.172-3.359,4.813-3.359c2.657,0,4.813,1.516,4.813,3.359C182.672,370.657,180.516,372.157,177.859,372.157z"/>
    </symbol>

    <symbol id="in" viewBox="0 0 64 64">
        <title>Linked in</title>
        <path class="st0" d="M8,54.7C8,55.4,8.6,56,9.3,56h9.3c0.7,0,1.3-0.6,1.3-1.3V23.9c0-0.7-0.6-1.3-1.3-1.3H9.3   c-0.7,0-1.3,0.6-1.3,1.3V54.7z"/><path class="st0" d="M46.6,22.3c-4.5,0-7.7,1.8-9.4,3.7c-0.4,0.4-1.1,0.1-1.1-0.5l0-1.6c0-0.7-0.6-1.3-1.3-1.3h-9.4   c-0.7,0-1.3,0.6-1.3,1.3c0.1,5.7,0,25.4,0,30.7c0,0.7,0.6,1.3,1.3,1.3h9.5c0.7,0,1.3-0.6,1.3-1.3V37.9c0-1,0-2,0.3-2.7   c0.8-2,2.6-4.1,5.7-4.1c4.1,0,6,3.1,6,7.6v15.9c0,0.7,0.6,1.3,1.3,1.3h9.3c0.7,0,1.3-0.6,1.3-1.3V37.4C60,27.1,54.1,22.3,46.6,22.3   z"/><path class="st0" d="M13.9,18.9L13.9,18.9c3.8,0,6.1-2.4,6.1-5.4C19.9,10.3,17.7,8,14,8c-3.7,0-6,2.3-6,5.4   C8,16.5,10.3,18.9,13.9,18.9z"/>
    </symbol>
</svg>