<svg xmlns="http://www.w3.org/2000/svg">
    <symbol id="mine" viewBox="0 0 24 24">
        <title>Mina</title>
        <path d="M22,13V11H18.9205a6.9541,6.9541,0,0,0-1.32-3.1865l2.1777-2.1778-1.414-1.414L16.1865,6.3994A6.953,6.953,0,0,0,13,5.08V2H11V5.08a6.953,6.953,0,0,0-3.1865,1.32L5.6357,4.2217l-1.414,1.414L6.3994,7.8135A6.9541,6.9541,0,0,0,5.08,11H2v2H5.08a6.9541,6.9541,0,0,0,1.32,3.1865L4.2217,18.3643l1.414,1.414,2.1778-2.1777A6.9541,6.9541,0,0,0,11,18.9205V22h2V18.9205a6.9541,6.9541,0,0,0,3.1865-1.32l2.1778,2.1777,1.414-1.414-2.1777-2.1778A6.9541,6.9541,0,0,0,18.9205,13ZM12,7.5A4.505,4.505,0,0,0,7.5,12a.5.5,0,0,1-1,0A5.5062,5.5062,0,0,1,12,6.5a.5.5,0,0,1,0,1Z"/>
    </symbol>

    <symbol id="flag" viewBox="0 0 24 24">
        <title>Bandera</title>
        <path d="M21.5638,11.2234c-.3426-.7537-3.67,1.0213-6.0957-3.5426a10.29,10.29,0,0,0-5.0745-4.5957c-1.9787-1.0213-2.7287-.6064-2.8085,2.25a7.81,7.81,0,0,1-.394,2.25v-4.5a1,1,0,0,0-2,0V22.17h2v-9.014c1.5234-.6765,4.88-.4745,7.6068.77C18.0851,15.4255,21.883,11.9255,21.5638,11.2234Z"/>
    </symbol>
</svg>