<svg xmlns="http://www.w3.org/2000/svg">
    <symbol id="carrier" viewBox="0 0 500 100">
        <title>Portaviones</title>
        <path d="M68.1609,56.0806V38.3972h-6.8V29.9843h7.9073V10h4.16V29.9843H84.6594v-11.06h31.3228V29.9849h25.63v8.4129H134.84v5.81h46.4446V56.0812c118.861.0445,102.9753.1333,308.7156.1333A82.4526,82.4526,0,0,0,470.52,90H33.6328L10,74.5834V56.0812H68.1609Z"/><path d="M208.8669,53.6106h-.4057c-.32-.0561-.8209-.0561-1.1424-.1308a.3294.3294,0,0,0-.2669-.0831c-.1388-.0664-.32-.1411-.4591-.2159h-1.9847c-.0854,0-.0854-.0654-.18-.0654v-1.523a1.3413,1.3413,0,0,1,.0949-.6343h1.9859c.32-.0737.5433-.0737.8956-.14.1495,0,.4057-.0747.6406-.0747h-1.5362a2.2194,2.2194,0,0,0-.1815-.14v-.8679a2.7354,2.7354,0,0,0-.4911-.7942c-.33-.6343-.6513-1.2884-.9918-1.9414-.2349-.43-.47-.86-.7367-1.2894a3.4329,3.4329,0,0,0-.32-.71h3.2113c.0534.0561.0534.1308.1495.1308a2.3462,2.3462,0,0,0,.4911.3655,14.14,14.14,0,0,0,1.2266,1.008,1.26,1.26,0,0,0,.3523.29c.9609.6343,1.7178,1.4378,2.6253,2.0825a3.3748,3.3748,0,0,1,.81.6437c.0973,0,.0973.0747.1507.0747.1708.14.3511.0561.5006.14a6.7154,6.7154,0,0,0,1.2491.2886,23.7186,23.7186,0,0,0,2.4532.7184c5.1011.1412,12.8048-2.0161,16.6554.0748.2681.14.5018.2813.7581.42.0842.0738.1495.15.2349.15a2.6037,2.6037,0,0,0,.7568.0748c.5564.13,1.1424.13,1.7178.2886a7.5294,7.5294,0,0,0,1.2278.28c.2337.0747.4163.0747.6394.1589.3523.1308.758.28,1.089.4111.1708.0747.4045.15.5753.2253l2.1341.2138-12.5793.0748a1.51,1.51,0,0,0,.5872.14h0a1.8254,1.8254,0,0,1-.5872.2243h-.0854v.85c0,.0748-.0534.0748-.0534.1589h-.4366v.1308c-.2348.0747-.32,0-.32-.1309h-.5018v.4288h-4.0226v-.4288a.295.295,0,0,1,.1708-.084h0c-7.788-.0748-4.61-.14-9.9126-.3551a4.2984,4.2984,0,0,1-.67.4952,3.79,3.79,0,0,1-.7366.43c0,.083-.4057-.0571-.4912-.0571-.586-.15-1.1625-.2979-1.7165-.4288v-.654a13.0219,13.0219,0,0,1-2.573-.2232Z"/><path d="M430.22,53.6106h-.32c-.4057-.0561-.822-.0561-1.2278-.1308a.3169.3169,0,0,0-.255-.0831c-.1507-.0664-.331-.1411-.503-.2159h-1.9526c-.0854,0-.0854-.0654-.18-.0654v-1.523a1.3426,1.3426,0,0,1,.0948-.6343h2.0381c.2681-.0737.5872-.0737.8434-.14.15,0,.4164-.0747.6394-.0747H427.86a2.0921,2.0921,0,0,0-.18-.14v-.8679c-.0854-.29-.3214-.57-.4057-.7942-.3215-.6343-.758-1.2884-1.0771-1.9414-.2349-.43-.5018-.86-.7367-1.2894a3.4973,3.4973,0,0,0-.32-.71h3.1792a1.2681,1.2681,0,0,1,.1816.1308,2.3436,2.3436,0,0,0,.4911.3655c.4045.2886.8209.7173,1.2266,1.008a2.2534,2.2534,0,0,1,.32.29c.9929.6343,1.7509,1.4378,2.7106,2.0825a4.6478,4.6478,0,0,1,.7569.6437c.0961,0,.0961.0747.1507.0747.18.14.3511.0561.5006.14a6.8939,6.8939,0,0,0,1.2266.2886c.8434.2814,1.6548.5046,2.4758.7184,5.0784.1412,12.8035-2.0161,16.6554.0748.2681.14.5018.2813.758.42a.3634.3634,0,0,0,.2349.15,2.4232,2.4232,0,0,0,.7248.0748c.5872.13,1.1733.13,1.7284.2886a8.2569,8.2569,0,0,0,1.2492.28c.2337.0747.4164.0747.65.1589.3215.1308.758.28,1.1626.4111.1494.0747.32.15.4911.2253l2.1341.2138-12.5793.0748a1.999,1.999,0,0,0,.5872.14h0a1.8263,1.8263,0,0,1-.5872.2243h-.0854v.85c0,.0748-.0843.0748-.0843.1589h-.4057v.1308c-.2349.0747-.32,0-.32-.1309h-.503v.4288H446.148v-.4288a.3.3,0,0,1,.172-.084h0c-7.81-.0748-4.61-.14-9.9446-.3551a1.9805,1.9805,0,0,1-.6406.4952c-.2669.1505-.4057.3727-.758.43,0,.083-.4164-.0571-.47-.0571-.586-.15-1.1625-.2979-1.75-.4288v-.654a13.7731,13.7731,0,0,1-2.5375-.2232Z"/><path d="M319.5647,53.6106h-.3417c-.4164-.0561-.8209-.0561-1.2266-.1308a.2875.2875,0,0,0-.2349-.0831c-.18-.0664-.32-.1411-.5006-.2159h-1.9858c-.0522,0-.0522-.0654-.1376-.0654v-1.523a1.4767,1.4767,0,0,1,.0854-.6343h2.038c.2337-.0737.5006-.0737.8209-.14.1709,0,.4058-.0747.6715-.0747h-1.579s-.0854-.0831-.1494-.14v-.8679a3.2879,3.2879,0,0,0-.4912-.7942c-.3511-.6343-.6714-1.2884-.9917-1.9414-.2681-.43-.4911-.86-.7248-1.2894a3.214,3.214,0,0,0-.3523-.71h3.2112c.0843.0561.0843.1308.1709.1308a1.7971,1.7971,0,0,0,.5018.3655,15.7159,15.7159,0,0,0,1.2159,1.008c.0961.0654.2337.2149.32.29.9929.6343,1.7284,1.4378,2.6252,2.0825a2.9158,2.9158,0,0,1,.821.6437c.0854,0,.0854.0747.18.0747.172.14.3214.0561.4911.14a6.8821,6.8821,0,0,0,1.2278.2886c.81.2814,1.6311.5046,2.4437.7184,5.1105.1412,12.8451-2.0161,16.6863.0748.2349.14.5018.2813.7367.42a.4682.4682,0,0,0,.2562.15,2.4659,2.4659,0,0,0,.7355.0748c.5765.13,1.1317.13,1.7177.2886a7.2773,7.2773,0,0,0,1.2267.28c.2681.0747.4057.0747.6726.1589.32.1308.7248.28,1.1412.4111.172.0747.3214.15.4911.2253l2.1341.2138-12.5485.0748a1.2716,1.2716,0,0,0,.5552.14h0a1.8535,1.8535,0,0,1-.5552.2243H340.84v.85c0,.0748-.0961.0748-.0961.1589h-.4057v.1308c-.2562.0747-.32,0-.32-.1309h-.4911v.4288h-4.0334v-.4288s.0866-.084.1507-.084h0c-7.7891-.0748-4.5779-.14-9.9233-.3551a2.0112,2.0112,0,0,1-.6714.4952,2.9782,2.9782,0,0,1-.7248.43c0,.083-.4057-.0571-.4911-.0571-.5861-.15-1.1424-.2979-1.7284-.4288v-.654a13.1455,13.1455,0,0,1-2.54-.2232Z"/>
    </symbol>
    
    <symbol id="battleship" viewBox="0 0 400 100">
        <title>Acorazado</title>
        <path d="M361.753,82.5987a2.0233,2.0233,0,0,1,.5251-1.7875h-.061L390,53.92c-7.5446,1.0709-33.1942,4.7048-43.723,6.8129-5.4732,1.0721-13.5592,2.5042-22.6663,3.7614a4.1553,4.1553,0,0,0-2.3748-2.3767h-34.33a3.6852,3.6852,0,0,0-2.3352,3.2261l-.0464,2.5975h-.7271c-.0611,0-.0611.0459-.1075.0459l-.0618-.0459c-.7728.0459-1.5463.0459-2.319.0459h-6.4934V62.409H244.2305a1.1145,1.1145,0,0,1-.18.0256L110.0168,62.12l-5.7663,5.4681-2.1487-.0408,6.8415-6.4515a1.083,1.083,0,0,1,.6567-.2279l118.3419.2745V58.0438l-3.1552-5.5083-8.8123-.0466a.7987.7987,0,0,1-.8346-.5814l-.5887-5.2525-21.8963-.0356a.7712.7712,0,0,1-.8355-.6287V40.5168h-4.2819l.1779-17.6559h-5.0478L182.4819,40.47h-1.3683l.24-23.5247H176.29L176.0581,40.47h-1.3674l.177-17.6552h-5.0014L169.6884,40.47h-1.0666l.0619-6.941H160.59l-.0619,6.9061h-.9506l.0619-4.67h-9.23l-.0541,4.67h-.2939a.7764.7764,0,0,1-.8346-.6293V10H126.7932V37.43h.0618l-.0618,8.1523a.6972.6972,0,0,1-.8269.6293h-4.043l-8.5106-11.25H99.8456l-.0541,11.2036H96.1508l.0695-8.4663H94.9062l0-.0007H78.9567v4.7987c-.0542,6.4982-2.4891,12.8572-4.1591,19.3554a.8272.8272,0,0,1-.8354.5H70.6308a.931.931,0,0,1-.5956-.1858.7348.7348,0,0,1-.24-.4435L69.8573,50.38H60.8129L60.751,61.8979a.5215.5215,0,0,1-.2321.4539,1.3114,1.3114,0,0,1-.5947.1748H48.1423L41.239,67.4127H10.1383V67.36H10A116.9048,116.9048,0,0,0,12.025,79.96h-.0619l2.5046,9.0089v.4946H138.2159l228.7.5361-.7727-3.2261C365.0775,86.2268,362.0469,84.6659,361.753,82.5987Z"/>
    </symbol>
    
    <symbol id="submarine" viewBox="0 0 300 100">
        <title>Submarino</title>
        <path d="M289.9065,67.3672a21.0331,21.0331,0,0,0-3.72-9.3735c-2.6147-3.5435-6.075-5.5331-9.76-5.5331l-98.5577-.4139a9.4935,9.4935,0,0,0-3.858-3.4255l-1.2266-19.5174-4.5372-.0624v-.0026h-.9616v.0026h-.3284V8.9131h-3.83V29.0414h-.8164v-.0026h-.9737v.0026l-.3474-.0026h-.9476v-.0072l-6.8934-.0518h-3.1959l-5.4182-.0626-10.7971-.0546-1.5141,21.1486a41.5927,41.5927,0,0,0-4.9579,1.8021l-30.45-.1258c-13.6065,0-44.7587,10.209-57.0866,14.4068h-2.614l-25.129-.1084C10.881,65.9859,10,67.421,10,69.224c0,1.8012.881,3.3084,1.9866,3.3084h7.1L19.04,87.0641l16.1693.0624,3.0692-10.52c.0806-.2968.299-.5388.5186-.5388.046,0,.0979.0711.144.0711.3457.1172,33.0639,11.1053,59.6378,11.2224l177.5838.7792.046.7731V88.14C283.7983,88.14,290,79.7974,290,69.5276,289.9994,68.7485,289.9533,68.0769,289.9065,67.3672Z"/>
    </symbol>
    
    <symbol id="cruiser" viewBox="0 0 200 100">
        <title>Crucero</title>
        <path d="M187.0886,54.05l.0267-9.9669-3.1245-.0442-3.3751-10.4237H175.185V43.9923h-3.3793v5.0939c0,.4139-.21.7342-.4423.7342l-62.6808-.32.569-1.2746a.39.39,0,0,1,.3392-.2735l60.5.3624.0267-3.73-1.6377-6.551h-4.47c-.2352,0-.4182-.32-.4408-.6841l-.3127-6.2782-11.199-.09c-.2352,0-.4422-.3229-.4422-.73l.0236-1.6384V16.9174l-.5446-4.8665h-.6519c-.0519,0-.0787-.0467-.1-.0922-.0561-.0508-.0561-.0917-.0561-.1839v-1.728L145.0663,10h-1.04l-.0267,4.96c0,.1371-.0539.2761-.1562.2761l-.7284-.0494h-5.8469l-2.5991-.0468v2.0055h-16.27v2.7773l-.0226,9.8734c0,.4554-.1829.7717-.4193.7717l-3.3526-.0408-10.474-.0494-10.3148-.0468L91.788,49.133c-.026.3665-.2079.5939-.4134.5939H89.6564c-.1031,0-.2059-.0943-.312-.2274a1.1014,1.1014,0,0,1-.1036-.547L89.2661,35.53l-4.6237-.0468-.0283,13.696a1.0649,1.0649,0,0,1-.13.5477.4669.4669,0,0,1-.312.2267l-6.0284-.0468-2.4169,4.0037H74.2459V41.2151H56.8074V35.0727h2.547V26.11H49.7661V14.2786H37.9912V26.11H29.2848v8.9627h2.547V53.8683H10V73.6157L18.8909,90H182.673C184.9822,67.7059,190,54.05,190,54.05Z"/>
    </symbol>
    
    <symbol id="destroyer" viewBox="0 0 200 100">
        <title>Destructor</title>
        <path d="M190,51.3272c-3.5793.721-15.73,3.173-20.7165,4.5892-2.5911.7219-6.4222,1.6916-10.7354,2.54a2.4711,2.4711,0,0,0-1.1388-1.6055H141.1628a2.5984,2.5984,0,0,0-1.1022,2.1771l-.0289,1.7484h-.3359c-.0278,0-.0278.031-.0564.031l-.0289-.031c-.3678.031-.736.031-1.0993.031h-3.0707v-3.757H120.9434a.3641.3641,0,0,1-.0751.0156l-4.5956-.0156h-.6344v-.0021L57.37,56.8508l-2.7344,3.6868-1.6041.0151,3.4576-4.6521a2.2969,2.2969,0,0,1,.7233-.3723l56.02.0106V54.1063l-1.5-3.716-4.1651-.0276a.4127.4127,0,0,1-.4-.3939l-.2808-3.5276L96.52,46.41a.4171.4171,0,0,1-.3956-.42V42.3032h-2.029l.0825-11.8959H91.7846l-.0824,11.8644h-4.26V10.0292H81.8069L74.394,10v1.9627L74.37,15.4335v2.5049h-.9621V17.819l-2.2229-.8456-2.6245.965H65.3215V40.22h.029l-.029,5.4921a.3884.3884,0,0,1-.3939.4285H63.0084L58.9789,38.56H52.5538l-.029,7.55h-1.69V40.4012H42.6629v3.23c-.029,4.3763-1.1816,8.6651-1.971,13.0382a.4108.4108,0,0,1-.3972.3371H38.7131a.3683.3683,0,0,1-.2809-.1245.5862.5862,0,0,1-.1114-.3008l.029-5.3421h.313V45.592H36.94v-.0161H35.3036v.0166l-.8545-.0166H33.7l-.0288.7428V51.24h.3938l-.029,5.461a.42.42,0,0,1-.1114.3061.428.428,0,0,1-.2824.1189H28.0613l-3.2691,3.2924H24.23L18.3137,49.31l-8.288-.0306L10,60.3875c.1114,1.4478.5327,6.0028.9543,8.4807H10.93L22.7967,89.3061l.0244.3359H70.7318L167.1459,90C165.68,81.2776,184.5,58.908,190,51.3272Z"/>
    </symbol>
</svg>