<svg xmlns="http://www.w3.org/2000/svg">
    <symbol id="hearts" viewBox="0 0 24 24">
        <title>Corazón</title>
        <path d="M10.6,22.375a2.16,2.16,0,0,0,1.4.6c.4,0,1.2-.2,1.4-.6l8.8-9.8a7.3,7.3,0,0,0,0-9.6,6.4006,6.4006,0,0,0-9.2,0l-1,1.2-1-1.2a6.4006,6.4006,0,0,0-9.2,0,7.3,7.3,0,0,0,0,9.6Z"/>
    </symbol>

    <symbol id="spades" viewBox="0 0 24 24">
        <title>Pica</title>
        <path d="M10.2507,17.34v2.9462a1.8415,1.8415,0,0,0,0,3.6829h3.6828a1.8415,1.8415,0,0,0,0-3.6829V17.34a5.5166,5.5166,0,0,0,3.3145,1.1048,5.7291,5.7291,0,0,0,4.0511-9.7594L13.3811.5833a1.78,1.78,0,0,0-2.578,0L2.7009,8.5013a5.78,5.78,0,0,0,0,8.1022A5.6842,5.6842,0,0,0,10.2507,17.34Z"/>
    </symbol>

    <symbol id="diamonds" viewBox="0 0 24 24">
        <title>Diamante</title>
        <path d="M13.3846.5538a2.0078,2.0078,0,0,0-2.7692,0L1.3846,10.7077a1.9366,1.9366,0,0,0,0,2.4l9.2308,10.1538A1.6789,1.6789,0,0,0,12.0923,24a1.4373,1.4373,0,0,0,1.2923-.5538l9.2308-10.1539a1.9366,1.9366,0,0,0,0-2.4Z"/>
    </symbol>

    <symbol id="clubs" viewBox="0 0 24 24">
        <title>Trébol</title>
        <path d="M18.087,6.7826V6.087A6.162,6.162,0,0,0,12,0,6.162,6.162,0,0,0,5.913,6.087v.6956a6.0043,6.0043,0,0,0-4.3478,5.9131,6.162,6.162,0,0,0,6.087,6.0869,4.9083,4.9083,0,0,0,2.6087-.6956v2.4347a1.7392,1.7392,0,1,0,0,3.4783h3.4782a1.7392,1.7392,0,1,0,0-3.4783V18.087a7.2892,7.2892,0,0,0,2.6087.6956,6.162,6.162,0,0,0,6.087-6.0869A6.3818,6.3818,0,0,0,18.087,6.7826Z"/>
    </symbol>
</svg>