<svg xmlns="http://www.w3.org/2000/svg">
    <symbol id="hearts" viewBox="0 0 24 24">
        <title>Corazón</title>
        <path d="M10.6,22.375a2.16,2.16,0,0,0,1.4.6c.4,0,1.2-.2,1.4-.6l8.8-9.8a7.3,7.3,0,0,0,0-9.6,6.4006,6.4006,0,0,0-9.2,0l-1,1.2-1-1.2a6.4006,6.4006,0,0,0-9.2,0,7.3,7.3,0,0,0,0,9.6Z"/>
    </symbol>

    <symbol id="spades" viewBox="0 0 24 24">
        <title>Pica</title>
        <path d="M10.2507,17.34v2.9462a1.8415,1.8415,0,0,0,0,3.6829h3.6828a1.8415,1.8415,0,0,0,0-3.6829V17.34a5.5166,5.5166,0,0,0,3.3145,1.1048,5.7291,5.7291,0,0,0,4.0511-9.7594L13.3811.5833a1.78,1.78,0,0,0-2.578,0L2.7009,8.5013a5.78,5.78,0,0,0,0,8.1022A5.6842,5.6842,0,0,0,10.2507,17.34Z"/>
    </symbol>

    <symbol id="diamonds" viewBox="0 0 24 24">
        <title>Diamante</title>
        <path d="M13.3846.5538a2.0078,2.0078,0,0,0-2.7692,0L1.3846,10.7077a1.9366,1.9366,0,0,0,0,2.4l9.2308,10.1538A1.6789,1.6789,0,0,0,12.0923,24a1.4373,1.4373,0,0,0,1.2923-.5538l9.2308-10.1539a1.9366,1.9366,0,0,0,0-2.4Z"/>
    </symbol>

    <symbol id="clubs" viewBox="0 0 24 24">
        <title>Trébol</title>
        <path d="M18.087,6.7826V6.087A6.162,6.162,0,0,0,12,0,6.162,6.162,0,0,0,5.913,6.087v.6956a6.0043,6.0043,0,0,0-4.3478,5.9131,6.162,6.162,0,0,0,6.087,6.0869,4.9083,4.9083,0,0,0,2.6087-.6956v2.4347a1.7392,1.7392,0,1,0,0,3.4783h3.4782a1.7392,1.7392,0,1,0,0-3.4783V18.087a7.2892,7.2892,0,0,0,2.6087.6956,6.162,6.162,0,0,0,6.087-6.0869A6.3818,6.3818,0,0,0,18.087,6.7826Z"/>
    </symbol>

    <symbol id="back" viewBox="0 0 240 432">
        <title>Trébol</title>
        <path xmlns="http://www.w3.org/2000/svg" d="M240,47.998V8a8,8,0,0,0-8-8H8A8,8,0,0,0,0,8V424a8,8,0,0,0,8,8H232a8,8,0,0,0,8-8V47.998ZM171.314,416,16,260.687V243.314L188.686,416Zm-40.001,0L16,300.687V283.314L148.686,416Zm-40,0L16,340.687V323.314L108.687,416Zm-40,0L16,380.687V363.314L68.687,416ZM16,163.313l208,208v17.373l-208-208Zm0-22.626V123.314l208,208v17.373Zm0-40V83.314l208,208v17.373Zm0-40V43.313l208,208v17.373ZM68.686,16,224,171.313v17.373L51.314,16Zm22.628,0h17.373L224,131.313v17.373Zm39.999,0h17.373L224,91.313v17.373Zm40,0h17.373L224,51.313V68.686ZM224,28.687,211.313,16H224ZM28.686,16,224,211.313v17.373l-208-208V16ZM16,403.313,28.687,416H16ZM211.314,416,16,220.687V203.314l208,208V416Z"/>    </symbol>
</svg>